<svg class="sidebar-logo-svg" width="285" height="285" viewBox="0 0 285 285" fill="none" xmlns="http://www.w3.org/2000/svg" aria-hidden="true" focusable="false">
<g filter="url(#filter0_i_1_35)">
<path d="M244 210.5C166.414 257.77 123.717 258.653 45 210.5C45 210.5 48.9987 267.98 143.749 267.98C238.5 267.98 244 210.5 244 210.5Z" fill="#08AF89"/>
</g>
<path d="M244 210.5C166.414 257.77 123.717 258.653 45 210.5C45 210.5 48.9987 267.98 143.749 267.98C238.5 267.98 244 210.5 244 210.5Z" stroke="#08AF89" stroke-linecap="round"/>
<g filter="url(#filter1_i_1_35)">
<path d="M141.527 248.006C33.5266 244.006 20 179.001 20 169.501C20 160.001 30.0534 37.9931 141.527 37.0065C253 36.02 266.5 152 264.527 174.006C264.213 177.5 249.527 252.006 141.527 248.006Z" fill="#FDFCF7"/>
</g>
<path class="sidebar-logo-ear sidebar-logo-ear-left" d="M88.4999 50.5C88.4999 50.5 54.4999 79.5 52.5 81.5C50.5 83.5 48.4999 30 60.5 26C72.5 22 88.4999 50.5 88.4999 50.5Z" fill="white"/>
<g class="sidebar-logo-ear sidebar-logo-ear-right" filter="url(#filter2_i_1_35)">
<path d="M181 43.0799C181 43.0799 244.666 102.297 248.558 105.979C252.45 109.662 256.342 11.1535 232.989 3.78848C209.637 -3.57659 181 43.0799 181 43.0799Z" fill="url(#paint0_linear_1_35)"/>
</g>
<g class="sidebar-logo-ear sidebar-logo-ear-right" filter="url(#filter3_i_1_35)">
<path d="M181 43.0799C181 43.0799 244.666 102.297 248.558 105.979C252.45 109.662 256.342 11.1535 232.989 3.78848C209.637 -3.57659 181 43.0799 181 43.0799Z" fill="url(#paint1_linear_1_35)"/>
</g>
<path class="sidebar-logo-ear sidebar-logo-ear-right" d="M198 50.5799C198 50.5799 232 79.5798 234 81.5799C236 83.5799 238 30.0798 226 26.0799C214 22.0799 198 50.5799 198 50.5799Z" fill="white"/>
<g class="sidebar-logo-ear sidebar-logo-ear-left" filter="url(#filter4_i_1_35)">
<path d="M105.5 42.0799C105.5 42.0799 41.8342 101.297 37.9422 104.979C34.0501 108.662 30.1579 10.1535 53.5106 2.78848C76.8632 -4.57659 105.5 42.0799 105.5 42.0799Z" fill="url(#paint2_linear_1_35)"/>
</g>
<path class="sidebar-logo-ear sidebar-logo-ear-left" d="M88.4999 49.5799C88.4999 49.5799 54.4999 78.5798 52.5 80.5799C50.5 82.5799 48.4999 29.0798 60.5 25.0799C72.5 21.0799 88.4999 49.5799 88.4999 49.5799Z" fill="white"/>
<path d="M113.699 190.061C113.043 188.847 111.526 188.394 110.311 189.051C109.097 189.707 108.644 191.224 109.301 192.439L111.5 191.25L113.699 190.061ZM177.117 192.58C177.851 191.411 177.499 189.868 176.33 189.133C175.161 188.399 173.618 188.751 172.883 189.92L175 191.25L177.117 192.58ZM143 182.5H140.5V191.25H143H145.5V182.5H143ZM111.5 191.25L109.301 192.439C112.359 198.097 118.983 201.044 125.674 201.249C132.444 201.456 139.852 198.905 144.917 192.855L143 191.25L141.083 189.645C137.148 194.345 131.306 196.419 125.826 196.251C120.267 196.081 115.641 193.653 113.699 190.061L111.5 191.25ZM175 191.25L172.883 189.92C168.333 197.159 155.777 200.72 144.786 189.501L143 191.25L141.214 192.999C154.223 206.28 170.667 202.841 177.117 192.58L175 191.25Z" fill="black"/>
<path d="M123.5 169C123.5 169 127 185 143 185C159 185 162 169 162 169C162 169 165.5 158 143 157.5C120.5 157 123.5 169 123.5 169Z" fill="#1D0C00" stroke="black"/>
<g filter="url(#filter5_i_1_35)">
<path d="M265 175C265 1 34 -18 20 171C27.6429 141.341 46.5 134.5 67.5 147.5C88.5 160.5 82.5 158 93.5 160.5C104.5 163 119.918 148.406 138 147.5C159.853 146.405 170.637 161.38 192.5 160.5C213.788 159.643 225.55 137 244.5 144C263.45 151 265 175 265 175Z" fill="#FDAC24"/>
</g>
<g class="sidebar-logo-eye sidebar-logo-eye-left">
<ellipse cx="95" cy="137" rx="13" ry="15" fill="#261000"/>
<g filter="url(#filter6_f_1_35)">
<ellipse cx="90.1975" cy="129.716" rx="2.5" ry="4" transform="rotate(30.8508 90.1975 129.716)" fill="#D9D9D9"/>
</g>
</g>
<g class="sidebar-logo-eye sidebar-logo-eye-right">
<ellipse cx="191" cy="137" rx="13" ry="15" fill="#261000"/>
<g filter="url(#filter7_f_1_35)">
<ellipse cx="187.185" cy="129.08" rx="2.16268" ry="3.46028" transform="rotate(30.8508 187.185 129.08)" fill="#D9D9D9"/>
</g>
</g>
<g class="sidebar-logo-brow sidebar-logo-brow-left">
<path d="M111 92.7607C106.089 88.1699 95.0254 86.9895 91.3648 92.7607C88.089 97.9252 90.2884 101.601 95 105.5C100.415 109.982 112.933 112.219 115 105.5C117 99 115 96.5 111 92.7607Z" fill="white" stroke="white"/>
</g>
<g class="sidebar-logo-brow sidebar-logo-brow-right">
<path d="M175.785 92.8982C180.695 88.3075 191.759 87.1271 195.42 92.8982C198.696 98.0627 196.496 101.738 191.785 105.638C186.369 110.119 173.852 112.356 171.785 105.638C169.785 99.1376 171.785 96.6376 175.785 92.8982Z" fill="white" stroke="white"/>
</g>
<ellipse cx="142.5" cy="261.5" rx="22.5" ry="21.5" fill="#08AF89"/>
<ellipse cx="142.5" cy="261.5" rx="18.5" ry="17.5" fill="white"/>
<path class="sidebar-logo-check" d="M134 261.22C134 261.22 136.894 266.813 139.064 267.932C141.234 269.051 151 256 151 256" pathLength="1" stroke="#00896A" stroke-width="7" stroke-linecap="round"/>
<g filter="url(#filter8_f_1_35)">
<ellipse cx="140" cy="165" rx="12" ry="2" fill="#D9D9D9"/>
</g>
<defs>
<filter id="filter0_i_1_35" x="44.4339" y="209.553" width="200.159" height="62.9264" filterUnits="userSpaceOnUse" color-interpolation-filters="sRGB">
<feFlood flood-opacity="0" result="BackgroundImageFix"/>
<feBlend mode="normal" in="SourceGraphic" in2="BackgroundImageFix" result="shape"/>
<feColorMatrix in="SourceAlpha" type="matrix" values="0 0 0 0 0 0 0 0 0 0 0 0 0 0 0 0 0 0 127 0" result="hardAlpha"/>
<feOffset dy="4"/>
<feGaussianBlur stdDeviation="7.85"/>
<feComposite in2="hardAlpha" operator="arithmetic" k2="-1" k3="1"/>
<feColorMatrix type="matrix" values="0 0 0 0 0 0 0 0 0 0.187237 0 0 0 0 0.0312062 0 0 0 1 0"/>
<feBlend mode="normal" in2="shape" result="effect1_innerShadow_1_35"/>
</filter>
<filter id="filter1_i_1_35" x="20" y="37.0003" width="244.698" height="211.162" filterUnits="userSpaceOnUse" color-interpolation-filters="sRGB">
<feFlood flood-opacity="0" result="BackgroundImageFix"/>
<feBlend mode="normal" in="SourceGraphic" in2="BackgroundImageFix" result="shape"/>
<feColorMatrix in="SourceAlpha" type="matrix" values="0 0 0 0 0 0 0 0 0 0 0 0 0 0 0 0 0 0 127 0" result="hardAlpha"/>
<feOffset/>
<feGaussianBlur stdDeviation="15.5"/>
<feComposite in2="hardAlpha" operator="arithmetic" k2="-1" k3="1"/>
<feColorMatrix type="matrix" values="0 0 0 0 1 0 0 0 0 0.785693 0 0 0 0 0.540771 0 0 0 1 0"/>
<feBlend mode="normal" in2="shape" result="effect1_innerShadow_1_35"/>
</filter>
<filter id="filter2_i_1_35" x="181" y="3" width="70.5" height="107.08" filterUnits="userSpaceOnUse" color-interpolation-filters="sRGB">
<feFlood flood-opacity="0" result="BackgroundImageFix"/>
<feBlend mode="normal" in="SourceGraphic" in2="BackgroundImageFix" result="shape"/>
<feColorMatrix in="SourceAlpha" type="matrix" values="0 0 0 0 0 0 0 0 0 0 0 0 0 0 0 0 0 0 127 0" result="hardAlpha"/>
<feOffset dy="4"/>
<feGaussianBlur stdDeviation="2"/>
<feComposite in2="hardAlpha" operator="arithmetic" k2="-1" k3="1"/>
<feColorMatrix type="matrix" values="0 0 0 0 1 0 0 0 0 1 0 0 0 0 1 0 0 0 0.25 0"/>
<feBlend mode="normal" in2="shape" result="effect1_innerShadow_1_35"/>
</filter>
<filter id="filter3_i_1_35" x="181" y="3" width="70.5" height="107.08" filterUnits="userSpaceOnUse" color-interpolation-filters="sRGB">
<feFlood flood-opacity="0" result="BackgroundImageFix"/>
<feBlend mode="normal" in="SourceGraphic" in2="BackgroundImageFix" result="shape"/>
<feColorMatrix in="SourceAlpha" type="matrix" values="0 0 0 0 0 0 0 0 0 0 0 0 0 0 0 0 0 0 127 0" result="hardAlpha"/>
<feOffset dy="4"/>
<feGaussianBlur stdDeviation="2"/>
<feComposite in2="hardAlpha" operator="arithmetic" k2="-1" k3="1"/>
<feColorMatrix type="matrix" values="0 0 0 0 1 0 0 0 0 1 0 0 0 0 1 0 0 0 0.25 0"/>
<feBlend mode="normal" in2="shape" result="effect1_innerShadow_1_35"/>
</filter>
<filter id="filter4_i_1_35" x="35" y="2" width="70.5" height="107.08" filterUnits="userSpaceOnUse" color-interpolation-filters="sRGB">
<feFlood flood-opacity="0" result="BackgroundImageFix"/>
<feBlend mode="normal" in="SourceGraphic" in2="BackgroundImageFix" result="shape"/>
<feColorMatrix in="SourceAlpha" type="matrix" values="0 0 0 0 0 0 0 0 0 0 0 0 0 0 0 0 0 0 127 0" result="hardAlpha"/>
<feOffset dy="4"/>
<feGaussianBlur stdDeviation="2"/>
<feComposite in2="hardAlpha" operator="arithmetic" k2="-1" k3="1"/>
<feColorMatrix type="matrix" values="0 0 0 0 1 0 0 0 0 1 0 0 0 0 1 0 0 0 0.25 0"/>
<feBlend mode="normal" in2="shape" result="effect1_innerShadow_1_35"/>
</filter>
<filter id="filter5_i_1_35" x="20" y="36.7386" width="245" height="142.261" filterUnits="userSpaceOnUse" color-interpolation-filters="sRGB">
<feFlood flood-opacity="0" result="BackgroundImageFix"/>
<feBlend mode="normal" in="SourceGraphic" in2="BackgroundImageFix" result="shape"/>
<feColorMatrix in="SourceAlpha" type="matrix" values="0 0 0 0 0 0 0 0 0 0 0 0 0 0 0 0 0 0 127 0" result="hardAlpha"/>
<feOffset dy="4"/>
<feGaussianBlur stdDeviation="13.35"/>
<feComposite in2="hardAlpha" operator="arithmetic" k2="-1" k3="1"/>
<feColorMatrix type="matrix" values="0 0 0 0 1 0 0 0 0 0.770806 0 0 0 0 0.409893 0 0 0 1 0"/>
<feBlend mode="normal" in2="shape" result="effect1_innerShadow_1_35"/>
</filter>
<filter id="filter6_f_1_35" x="82.2286" y="121.05" width="15.9377" height="17.333" filterUnits="userSpaceOnUse" color-interpolation-filters="sRGB">
<feFlood flood-opacity="0" result="BackgroundImageFix"/>
<feBlend mode="normal" in="SourceGraphic" in2="BackgroundImageFix" result="shape"/>
<feGaussianBlur stdDeviation="2.5" result="effect1_foregroundBlur_1_35"/>
</filter>
<filter id="filter7_f_1_35" x="179.616" y="120.908" width="15.1365" height="16.3436" filterUnits="userSpaceOnUse" color-interpolation-filters="sRGB">
<feFlood flood-opacity="0" result="BackgroundImageFix"/>
<feBlend mode="normal" in="SourceGraphic" in2="BackgroundImageFix" result="shape"/>
<feGaussianBlur stdDeviation="2.5" result="effect1_foregroundBlur_1_35"/>
</filter>
<filter id="filter8_f_1_35" x="123" y="158" width="34" height="14" filterUnits="userSpaceOnUse" color-interpolation-filters="sRGB">
<feFlood flood-opacity="0" result="BackgroundImageFix"/>
<feBlend mode="normal" in="SourceGraphic" in2="BackgroundImageFix" result="shape"/>
<feGaussianBlur stdDeviation="2.5" result="effect1_foregroundBlur_1_35"/>
</filter>
<linearGradient id="paint0_linear_1_35" x1="216.25" y1="3" x2="190" y2="45.5" gradientUnits="userSpaceOnUse">
<stop stop-color="#FDAC23"/>
<stop offset="1" stop-color="#FEC56A"/>
</linearGradient>
<linearGradient id="paint1_linear_1_35" x1="216.25" y1="3" x2="190" y2="45.5" gradientUnits="userSpaceOnUse">
<stop stop-color="#FCAC2C"/>
<stop offset="1" stop-color="#FEC56A"/>
</linearGradient>
<linearGradient id="paint2_linear_1_35" x1="70.25" y1="2" x2="96.5" y2="44.5" gradientUnits="userSpaceOnUse">
<stop stop-color="#FDAC23"/>
<stop offset="1" stop-color="#FEC56A"/>
</linearGradient>
</defs>
</svg>
